# xmcd
#
# Track frame offsets: 
#        150
#        10100
#        22517
#        32965
#        45472
#        55570
#        63217
#        74055
#        86685
#        97720
#
# Disc length: 1450 seconds
#
# Revision: 0
# Processed by: cddbd v1.5.1PL0 Copyright (c) Steve Scherf et al.
# Submitted via: ExactAudioCopy v0.95a5
#
DISCID=6c05a80a
DTITLE=Johnny Cash - The Man in Black
DYEAR=1900
DGENRE=Country
TTITLE0=Ballad of a Teenage Queen
TTITLE1=I Walk the Line
TTITLE2=There You Go
TTITLE3=Folsom Prison Blues
TTITLE4=Get Rhythm
TTITLE5=Come in Stranger
TTITLE6=Train of Love
TTITLE7=Next in Line
TTITLE8=Cry! Cry! Cry!
TTITLE9=Don't Make Me Go
EXTD=
EXTT0=
EXTT1=
EXTT2=
EXTT3=
EXTT4=
EXTT5=
EXTT6=
EXTT7=
EXTT8=
EXTT9=
PLAYORDER=
